<svg xmlns="http://www.w3.org/2000/svg" width="1000" height="800"><g transform="translate(30, 20)"><g><g transform="translate(0, 720)" fill="none" font-size="10" font-family="sans-serif" text-anchor="middle"><path class="domain" stroke="#000" d="M0.5000,5V0.5000H950.5000V5"></path><g class="tick" opacity="1" transform="translate(119.5,0)"><line stroke="#000" y2="5"></line><text fill="#000" y="10" dy="0.71em">50,000</text></g><g class="tick" opacity="1" transform="translate(237.5,0)"><line stroke="#000" y2="5"></line><text fill="#000" y="10" dy="0.71em">100,000</text></g><g class="tick" opacity="1" transform="translate(356.5,0)"><line stroke="#000" y2="5"></line><text fill="#000" y="10" dy="0.71em">150,000</text></g><g class="tick" opacity="1" transform="translate(475.5,0)"><line stroke="#000" y2="5"></line><text fill="#000" y="10" dy="0.71em">200,000</text></g><g class="tick" opacity="1" transform="translate(594.5,0)"><line stroke="#000" y2="5"></line><text fill="#000" y="10" dy="0.71em">250,000</text></g><g class="tick" opacity="1" transform="translate(712.5,0)"><line stroke="#000" y2="5"></line><text fill="#000" y="10" dy="0.71em">300,000</text></g><g class="tick" opacity="1" transform="translate(831.5,0)"><line stroke="#000" y2="5"></line><text fill="#000" y="10" dy="0.71em">350,000</text></g><g class="tick" opacity="1" transform="translate(950.5,0)"><line stroke="#000" y2="5"></line><text fill="#000" y="10" dy="0.71em">400,000</text></g></g><g fill="none" font-size="10" font-family="sans-serif" text-anchor="end"><path class="domain" stroke="#000" d="M-5,720.5000H0.5000V0.5000H-5"></path><g class="tick" opacity="1" transform="translate(0,664.5)"><line stroke="#000" x2="-5"></line><text fill="#000" x="-10" dy="0.32em">5</text></g><g class="tick" opacity="1" transform="translate(0,609.5)"><line stroke="#000" x2="-5"></line><text fill="#000" x="-10" dy="0.32em">10</text></g><g class="tick" opacity="1" transform="translate(0,553.5)"><line stroke="#000" x2="-5"></line><text fill="#000" x="-10" dy="0.32em">15</text></g><g class="tick" opacity="1" transform="translate(0,498.5)"><line stroke="#000" x2="-5"></line><text fill="#000" x="-10" dy="0.32em">20</text></g><g class="tick" opacity="1" transform="translate(0,442.5)"><line stroke="#000" x2="-5"></line><text fill="#000" x="-10" dy="0.32em">25</text></g><g class="tick" opacity="1" transform="translate(0,387.5)"><line stroke="#000" x2="-5"></line><text fill="#000" x="-10" dy="0.32em">30</text></g><g class="tick" opacity="1" transform="translate(0,331.5)"><line stroke="#000" x2="-5"></line><text fill="#000" x="-10" dy="0.32em">35</text></g><g class="tick" opacity="1" transform="translate(0,276.5)"><line stroke="#000" x2="-5"></line><text fill="#000" x="-10" dy="0.32em">40</text></g><g class="tick" opacity="1" transform="translate(0,220.5)"><line stroke="#000" x2="-5"></line><text fill="#000" x="-10" dy="0.32em">45</text></g><g class="tick" opacity="1" transform="translate(0,165.5)"><line stroke="#000" x2="-5"></line><text fill="#000" x="-10" dy="0.32em">50</text></g><g class="tick" opacity="1" transform="translate(0,109.5)"><line stroke="#000" x2="-5"></line><text fill="#000" x="-10" dy="0.32em">55</text></g><g class="tick" opacity="1" transform="translate(0,54.5)"><line stroke="#000" x2="-5"></line><text fill="#000" x="-10" dy="0.32em">60</text></g></g><g fill="none" stroke-width="1.5"><path stroke="steelblue" d="M0,720L0,720L1,720L9,717L95,692L950,290"></path><path stroke="darkorange" d="M0,720L0,720L1,719L9,712L95,641L950,0"></path><path stroke="green" d="M0,720L0,720L1,720L9,720L95,716L950,682"></path></g></g></g></svg>