<svg xmlns="http://www.w3.org/2000/svg" width="1000" height="800"><g transform="translate(30, 20)"><g><g transform="translate(0, 720)" fill="none" font-size="10" font-family="sans-serif" text-anchor="middle"><path class="domain" stroke="#000" d="M0.5000,5V0.5000H950.5000V5"></path><g class="tick" opacity="1" transform="translate(119.5,0)"><line stroke="#000" y2="5"></line><text fill="#000" y="10" dy="0.71em">50,000</text></g><g class="tick" opacity="1" transform="translate(237.5,0)"><line stroke="#000" y2="5"></line><text fill="#000" y="10" dy="0.71em">100,000</text></g><g class="tick" opacity="1" transform="translate(356.5,0)"><line stroke="#000" y2="5"></line><text fill="#000" y="10" dy="0.71em">150,000</text></g><g class="tick" opacity="1" transform="translate(475.5,0)"><line stroke="#000" y2="5"></line><text fill="#000" y="10" dy="0.71em">200,000</text></g><g class="tick" opacity="1" transform="translate(594.5,0)"><line stroke="#000" y2="5"></line><text fill="#000" y="10" dy="0.71em">250,000</text></g><g class="tick" opacity="1" transform="translate(712.5,0)"><line stroke="#000" y2="5"></line><text fill="#000" y="10" dy="0.71em">300,000</text></g><g class="tick" opacity="1" transform="translate(831.5,0)"><line stroke="#000" y2="5"></line><text fill="#000" y="10" dy="0.71em">350,000</text></g><g class="tick" opacity="1" transform="translate(950.5,0)"><line stroke="#000" y2="5"></line><text fill="#000" y="10" dy="0.71em">400,000</text></g></g><g fill="none" font-size="10" font-family="sans-serif" text-anchor="end"><path class="domain" stroke="#000" d="M-5,720.5000H0.5000V0.5000H-5"></path><g class="tick" opacity="1" transform="translate(0,639.5)"><line stroke="#000" x2="-5"></line><text fill="#000" x="-10" dy="0.32em">10</text></g><g class="tick" opacity="1" transform="translate(0,559.5)"><line stroke="#000" x2="-5"></line><text fill="#000" x="-10" dy="0.32em">20</text></g><g class="tick" opacity="1" transform="translate(0,478.5)"><line stroke="#000" x2="-5"></line><text fill="#000" x="-10" dy="0.32em">30</text></g><g class="tick" opacity="1" transform="translate(0,397.5)"><line stroke="#000" x2="-5"></line><text fill="#000" x="-10" dy="0.32em">40</text></g><g class="tick" opacity="1" transform="translate(0,316.5)"><line stroke="#000" x2="-5"></line><text fill="#000" x="-10" dy="0.32em">50</text></g><g class="tick" opacity="1" transform="translate(0,236.5)"><line stroke="#000" x2="-5"></line><text fill="#000" x="-10" dy="0.32em">60</text></g><g class="tick" opacity="1" transform="translate(0,155.5)"><line stroke="#000" x2="-5"></line><text fill="#000" x="-10" dy="0.32em">70</text></g><g class="tick" opacity="1" transform="translate(0,74.5)"><line stroke="#000" x2="-5"></line><text fill="#000" x="-10" dy="0.32em">80</text></g></g><g fill="none" stroke-width="1.5"><path stroke="steelblue" d="M0,720L0,720L1,720L9,717L95,691L950,446"></path><path stroke="darkorange" d="M0,720L0,720L1,719L9,712L95,643L950,0"></path><path stroke="green" d="M0,720L0,720L1,720L9,720L95,720L950,720"></path></g></g></g></svg>